<svg width="45" height="45" viewBox="0 0 45 45" fill="none" xmlns="http://www.w3.org/2000/svg">
<path d="M32.8447 23.5415C32.8272 20.5444 34.1851 18.2856 36.9272 16.6201C35.3936 14.4229 33.0732 13.2144 30.0146 12.9814C27.1187 12.7529 23.9502 14.6689 22.79 14.6689C21.564 14.6689 18.7603 13.0605 16.5542 13.0605C12.0015 13.1309 7.16309 16.6904 7.16309 23.9326C7.16309 26.0728 7.5542 28.2832 8.33643 30.5596C9.38232 33.5566 13.1528 40.8999 17.0859 40.7812C19.1426 40.7329 20.5972 39.3223 23.2734 39.3223C25.8706 39.3223 27.2153 40.7812 29.5093 40.7812C33.4775 40.7241 36.8877 34.0488 37.8809 31.043C32.5591 28.5337 32.8447 23.6953 32.8447 23.5415ZM28.2261 10.1382C30.4541 7.49268 30.252 5.08447 30.186 4.21875C28.2173 4.33301 25.9409 5.55908 24.6445 7.06641C23.2163 8.68359 22.377 10.6831 22.5571 12.9375C24.6841 13.1001 26.6265 12.0059 28.2261 10.1382Z" fill="white"/>
</svg>
