<svg width="35" height="35" viewBox="0 0 35 35" fill="none" xmlns="http://www.w3.org/2000/svg">
<path d="M7.26688 10.4957C9.02913 10.4957 10.4577 9.06709 10.4577 7.30485C10.4577 5.5426 9.02913 4.11401 7.26688 4.11401C5.50463 4.11401 4.07605 5.5426 4.07605 7.30485C4.07605 9.06709 5.50463 10.4957 7.26688 10.4957Z" fill="#3A3535"/>
<path d="M13.4706 12.9136V30.6163H18.9671V21.8619C18.9671 19.5519 19.4017 17.3148 22.2658 17.3148C25.0906 17.3148 25.1256 19.9559 25.1256 22.0077V30.6177H30.625V20.9096C30.625 16.1409 29.5983 12.4761 24.0246 12.4761C21.3485 12.4761 19.5548 13.9446 18.8213 15.3344H18.7469V12.9136H13.4706V12.9136ZM4.51355 12.9136H10.0188V30.6163H4.51355V12.9136Z" fill="#3A3535"/>
</svg>
