<svg width="91" height="27" viewBox="0 0 91 27" fill="none" xmlns="http://www.w3.org/2000/svg">
<path d="M10.376 26.252C8.528 26.252 6.872 25.952 5.408 25.352C3.944 24.752 2.768 23.864 1.88 22.688C1.016 21.512 0.56 20.096 0.512 18.44H7.064C7.16 19.376 7.484 20.096 8.036 20.6C8.588 21.08 9.308 21.32 10.196 21.32C11.108 21.32 11.828 21.116 12.356 20.708C12.884 20.276 13.148 19.688 13.148 18.944C13.148 18.32 12.932 17.804 12.5 17.396C12.092 16.988 11.576 16.652 10.952 16.388C10.352 16.124 9.488 15.824 8.36 15.488C6.728 14.984 5.396 14.48 4.364 13.976C3.332 13.472 2.444 12.728 1.7 11.744C0.956 10.76 0.584 9.476 0.584 7.892C0.584 5.54 1.436 3.704 3.14 2.384C4.844 1.04 7.064 0.368 9.8 0.368C12.584 0.368 14.828 1.04 16.532 2.384C18.236 3.704 19.148 5.552 19.268 7.928H12.608C12.56 7.112 12.26 6.476 11.708 6.02C11.156 5.54 10.448 5.3 9.584 5.3C8.84 5.3 8.24 5.504 7.784 5.912C7.328 6.296 7.1 6.86 7.1 7.604C7.1 8.42 7.484 9.056 8.252 9.512C9.02 9.968 10.22 10.46 11.852 10.988C13.484 11.54 14.804 12.068 15.812 12.572C16.844 13.076 17.732 13.808 18.476 14.768C19.22 15.728 19.592 16.964 19.592 18.476C19.592 19.916 19.22 21.224 18.476 22.4C17.756 23.576 16.7 24.512 15.308 25.208C13.916 25.904 12.272 26.252 10.376 26.252ZM35.6204 5.696C37.9724 5.696 39.8444 6.464 41.2364 8C42.6524 9.512 43.3604 11.6 43.3604 14.264V26H37.2404V15.092C37.2404 13.748 36.8924 12.704 36.1964 11.96C35.5004 11.216 34.5644 10.844 33.3884 10.844C32.2124 10.844 31.2764 11.216 30.5804 11.96C29.8844 12.704 29.5364 13.748 29.5364 15.092V26H23.3804V5.912H29.5364V8.576C30.1604 7.688 31.0004 6.992 32.0564 6.488C33.1124 5.96 34.3004 5.696 35.6204 5.696ZM46.4143 15.92C46.4143 13.856 46.7983 12.044 47.5663 10.484C48.3583 8.924 49.4263 7.724 50.7703 6.884C52.1143 6.044 53.6143 5.624 55.2703 5.624C56.6863 5.624 57.9223 5.912 58.9783 6.488C60.0583 7.064 60.8863 7.82 61.4623 8.756V5.912H67.6183V26H61.4623V23.156C60.8623 24.092 60.0223 24.848 58.9423 25.424C57.8863 26 56.6503 26.288 55.2343 26.288C53.6023 26.288 52.1143 25.868 50.7703 25.028C49.4263 24.164 48.3583 22.952 47.5663 21.392C46.7983 19.808 46.4143 17.984 46.4143 15.92ZM61.4623 15.956C61.4623 14.42 61.0303 13.208 60.1663 12.32C59.3263 11.432 58.2943 10.988 57.0703 10.988C55.8463 10.988 54.8023 11.432 53.9383 12.32C53.0983 13.184 52.6783 14.384 52.6783 15.92C52.6783 17.456 53.0983 18.68 53.9383 19.592C54.8023 20.48 55.8463 20.924 57.0703 20.924C58.2943 20.924 59.3263 20.48 60.1663 19.592C61.0303 18.704 61.4623 17.492 61.4623 15.956ZM83.9518 26L80.0998 20.42L76.8598 26H70.1998L76.8238 15.74L70.0198 5.912H76.9318L80.7838 11.456L84.0238 5.912H90.6838L83.9518 16.028L90.8638 26H83.9518Z" fill="#FCBE04"/>
</svg>
