<svg width="35" height="35" viewBox="0 0 35 35" fill="none" xmlns="http://www.w3.org/2000/svg">
<path d="M28.6314 11.6623C28.6504 11.9175 28.6504 12.1713 28.6504 12.425C28.6504 20.1907 22.7398 29.139 11.9379 29.139C8.60999 29.139 5.51832 28.175 2.91666 26.5009C3.38916 26.5548 3.84416 26.5738 4.33561 26.5738C6.97956 26.5802 9.54864 25.6961 11.6287 24.064C10.4029 24.0418 9.21458 23.6374 8.22971 22.9072C7.24484 22.1769 6.51259 21.1574 6.1352 19.9909C6.49832 20.0448 6.86291 20.0813 7.24499 20.0813C7.77145 20.0813 8.30082 20.0084 8.79228 19.8815C7.46193 19.6129 6.26568 18.8918 5.40693 17.8408C4.54819 16.7899 4.07996 15.4739 4.08186 14.1167V14.0438C4.86499 14.4798 5.77353 14.7525 6.73603 14.789C5.9297 14.2532 5.26854 13.5261 4.81153 12.6727C4.35451 11.8192 4.11586 10.8659 4.11686 9.89775C4.11686 8.80692 4.40707 7.8065 4.91603 6.93442C6.39207 8.75007 8.23301 10.2354 10.3196 11.2943C12.4063 12.3532 14.6921 12.962 17.0289 13.0813C16.9385 12.6438 16.8831 12.1903 16.8831 11.7353C16.8827 10.9637 17.0344 10.1997 17.3295 9.48685C17.6245 8.77399 18.0572 8.12628 18.6028 7.58073C19.1483 7.03519 19.796 6.60252 20.5089 6.30745C21.2217 6.01238 21.9858 5.8607 22.7573 5.86108C24.4489 5.86108 25.9758 6.56983 27.0492 7.71608C28.3642 7.46178 29.6254 6.9817 30.7767 6.29713C30.3383 7.65457 29.4201 8.80561 28.1939 9.53463C29.3603 9.4016 30.5002 9.09487 31.5758 8.62463C30.7725 9.79581 29.777 10.8228 28.6314 11.6623V11.6623Z" fill="#3A3535"/>
</svg>
